<svg id="cart3" xmlns="http://www.w3.org/2000/svg" width="44" height="43" viewBox="0 0 44 43">
  <ellipse id="Ellipse_6" data-name="Ellipse 6" cx="22" cy="21.5" rx="22" ry="21.5" fill="#fff"/>
  <path id="cart3-2" data-name="cart3" d="M0,2.033A1.033,1.033,0,0,1,1.033,1h3.1a1.033,1.033,0,0,1,1,.783l.837,3.35H29.967a1.033,1.033,0,0,1,1.013,1.236L28.913,16.7a1.033,1.033,0,0,1-.961.829l-19.42.975.593,3.16H26.867a1.033,1.033,0,0,1,0,2.067H8.267a1.033,1.033,0,0,1-1.015-.843l-3.1-16.5L3.327,3.067H1.033A1.033,1.033,0,0,1,0,2.033M6.411,7.2l1.736,9.257,18.9-.949L28.706,7.2Zm3.923,16.533a4.133,4.133,0,1,0,4.133,4.133,4.133,4.133,0,0,0-4.133-4.133m14.467,0a4.133,4.133,0,1,0,4.133,4.133A4.133,4.133,0,0,0,24.8,23.733M10.333,25.8a2.067,2.067,0,1,1-2.067,2.067A2.067,2.067,0,0,1,10.333,25.8m14.467,0a2.067,2.067,0,1,1-2.067,2.067A2.067,2.067,0,0,1,24.8,25.8" transform="translate(5 5)" fill="#ff6421"/>
</svg>
