<svg id="person-circle_copy" data-name="person-circle copy" xmlns="http://www.w3.org/2000/svg" width="44" height="43" viewBox="0 0 44 43">
  <ellipse id="Ellipse_5" data-name="Ellipse 5" cx="22" cy="21.5" rx="22" ry="21.5" fill="#fff"/>
  <g id="Group_3211" data-name="Group 3211" transform="translate(-20.68 18.126)">
    <path id="Path_2913" data-name="Path 2913" d="M48.662-.75a5.667,5.667,0,0,1-5.71,5.625A5.667,5.667,0,0,1,37.242-.75a5.667,5.667,0,0,1,5.71-5.625A5.667,5.667,0,0,1,48.662-.75" fill="none" stroke="#ff6421" stroke-width="1.889"/>
    <path id="Path_2914" data-name="Path 2914" d="M42.952-12A15.111,15.111,0,0,0,27.726,3,15.229,15.229,0,0,0,58.18,3,15.112,15.112,0,0,0,42.952-12ZM56.2,4.35c-.038.413-.1.806-.171,1.2-.019.094-.038.188-.057.263-.057.244-.114.488-.19.731-.057.206-.114.412-.19.619-.116.337-.249.675-.382.993-.076.187-.171.375-.266.562s-.19.394-.3.581a11.291,11.291,0,0,1-1.275,1.875,13.423,13.423,0,0,1-20.822,0,12.71,12.71,0,0,1-2-3.394,6.7,6.7,0,0,1-.247-.656c-.057-.188-.114-.375-.171-.581A5.065,5.065,0,0,1,29.991,6a5.558,5.558,0,0,1-.133-.6c-.038-.206-.076-.431-.095-.656A10.365,10.365,0,0,1,29.629,3,13.215,13.215,0,0,1,42.952-10.125a11.005,11.005,0,0,1,1.77.131c.228.019.457.056.666.094A5.993,5.993,0,0,1,46-9.769c.19.038.362.075.552.131.209.056.4.112.59.169a6.883,6.883,0,0,1,.666.244c.19.075.362.15.533.225a11.083,11.083,0,0,1,2.341,1.331,4.942,4.942,0,0,1,.742.544,11.367,11.367,0,0,1,1.009.9,11.328,11.328,0,0,1,.8.881A10,10,0,0,1,53.9-4.5a12.607,12.607,0,0,1,1.656,3.262,6.271,6.271,0,0,1,.209.638,5.423,5.423,0,0,1,.19.75c.038.131.057.263.1.394.057.356.115.731.153,1.106a10.226,10.226,0,0,1,.076,1.331v.038A10.226,10.226,0,0,1,56.2,4.35Z" fill="#ff6421" fill-rule="evenodd"/>
    <path id="Path_2915" data-name="Path 2915" d="M53.364,12.231a13.423,13.423,0,0,1-20.822,0c1.37-2.138,4.34-4.425,10.411-4.425C49.005,7.806,51.993,10.093,53.364,12.231Z" fill="none" stroke="#ff6421" stroke-width="1.889" fill-rule="evenodd"/>
  </g>
</svg>
