<svg id="telephone-fill" xmlns="http://www.w3.org/2000/svg" width="18" height="17.999" viewBox="0 0 18 17.999">
  <path id="telephone-fill-2" data-name="telephone-fill" d="M2.121.575A1.963,1.963,0,0,1,5.057.758L7.076,3.352a1.962,1.962,0,0,1,.354,1.681L6.815,7.5a.765.765,0,0,0,.2.723L9.78,10.984a.765.765,0,0,0,.724.2l2.463-.615a1.969,1.969,0,0,1,1.681.354l2.594,2.018a1.963,1.963,0,0,1,.183,2.937l-1.163,1.163a3.124,3.124,0,0,1-3.237.79A20.925,20.925,0,0,1,5.139,12.86,20.925,20.925,0,0,1,.167,4.975,3.127,3.127,0,0,1,.957,1.738Z" transform="translate(0 -0.001)" fill="#ff6421" fill-rule="evenodd"/>
</svg>
