<svg xmlns="http://www.w3.org/2000/svg" xmlns:xlink="http://www.w3.org/1999/xlink" width="206.133" height="40.672" viewBox="0 0 206.133 40.672">
  <defs>
    <linearGradient id="linear-gradient" x1="-0.932" y1="-0.224" x2="1.6" y2="1.122" gradientUnits="objectBoundingBox">
      <stop offset="0" stop-color="#17aaaa"/>
      <stop offset="1" stop-color="#42836f"/>
    </linearGradient>
    <linearGradient id="linear-gradient-2" x1="-0.448" y1="-1.762" x2="0.968" y2="1.64" xlink:href="#linear-gradient"/>
    <linearGradient id="linear-gradient-3" x1="-0.002" y1="-0.768" x2="1.44" y2="2.53" xlink:href="#linear-gradient"/>
  </defs>
  <g id="IWC_Final_Logo" transform="translate(0)">
    <g id="Group_3225" data-name="Group 3225" transform="translate(49.005 3.527)">
      <path id="Path_2941" data-name="Path 2941" d="M154.871,22.522l.011-.239,2.995-.456v-.684H143.369v.684l2.995.456.011.239c.163,4.026.26,9.267.26,13.662v2.192c0,4.492-.1,9.994-.26,14.02l-.011.228-2.995.467v.684h14.508v-.684l-3.049-.456-.011-.239c-.174-4.623-.206-10.765-.206-14.02V36.184c0-4.4.1-9.636.26-13.662Z" transform="translate(-143.369 -17.444)"/>
      <path id="Path_2942" data-name="Path 2942" d="M232.346,69.871l-.011-.217c-.152-2.659-.152-6.131-.152-8.931V54.766c0-4.774-2.214-7.4-6.229-7.4-3.234,0-5.567,1.422-7.813,4.764l-.358.532-.163-.63a5.633,5.633,0,0,0-5.936-4.666c-3.049,0-5.3,1.291-7.509,4.308l-.51.716V47.832l-.586-.445-9.647,2.756v.6l2.539.814.011.2c.108,2.4.108,4.417.108,7.759v1.215c0,2.8,0,6.272-.163,8.931l-.011.228-2.279.456v.694H205.9v-.705l-2.073-.456-.011-.217c-.152-2.659-.152-6.131-.152-8.931V52.791l.108-.086a6.568,6.568,0,0,1,3.744-1.433c1.932,0,2.832,1.194,2.832,3.754v5.7c0,2.8,0,6.272-.152,8.931l-.022.217-2.073.456v.705h12.056v-.705l-2.073-.456-.011-.217c-.152-2.659-.152-6.131-.152-8.931V54.766a15.284,15.284,0,0,0-.108-1.65l-.011-.152.119-.1a6.429,6.429,0,0,1,3.852-1.6c1.932,0,2.832,1.194,2.832,3.754v5.7c0,2.8,0,6.272-.152,8.931l-.011.217-2.083.456v.705h12.067v-.705l-2.083-.456Z" transform="translate(-176.32 -34.702)"/>
      <path id="Path_2943" data-name="Path 2943" d="M338.235,22.981a7.329,7.329,0,0,0-6.576,4.08l-.542.944V21.267l.206-10.5-.586-.445-9.745,2.561v.586l2.659.814V36.752c0,2.941-.065,6.207-.152,8.519l-.011.217-2.29.467v.716l10.027.673V42.666l.532.977c1.411,2.528,3.364,3.82,5.816,3.82,5.5,0,8.931-4.981,8.931-13,0-7.3-3.017-11.481-8.269-11.481ZM334.1,43.968a3.339,3.339,0,0,1-2.81-1.324l-.065-.087V28.082l.065-.076a3.841,3.841,0,0,1,2.81-1.53c2.93,0,4.417,2.843,4.417,8.442C338.517,43.078,335.435,43.968,334.1,43.968Z" transform="translate(-260.278 -10.318)"/>
      <path id="Path_2944" data-name="Path 2944" d="M414.554,45.487l-.011-.217c-.152-2.659-.152-6.131-.152-8.931V21.267l.2-10.5L414,10.318l-9.832,2.561v.586l2.648.814V36.339c0,2.8,0,6.272-.152,8.931l-.022.228-2.279.456v.694h12.262v-.705l-2.073-.456Z" transform="translate(-315.024 -10.318)"/>
      <path id="Path_2945" data-name="Path 2945" d="M454.1,15.619a3.534,3.534,0,1,0,3.635,3.537,3.508,3.508,0,0,0-3.635-3.537Zm3.961,33.357-.011-.217c-.163-2.659-.163-6.131-.163-8.931V33.622l.206-6.684-.586-.445-9.843,2.756v.6l2.539.814.011.2c.1,2.4.1,4.417.1,7.759v1.215c0,2.8,0,6.272-.152,8.931l-.011.228-2.279.456v.694h12.262v-.705Z" transform="translate(-343.65 -13.807)"/>
      <path id="Path_2946" data-name="Path 2946" d="M504.4,56.708l-1.422-.608c-2.42-1.031-4.709-2.007-4.709-4.547,0-2.149,1.476-3.44,3.95-3.44a6.918,6.918,0,0,1,2.767.478l.1.043,2.778,6.1h.651l.141-5.665a12.356,12.356,0,0,0-6.435-1.7c-5.686,0-9.083,2.865-9.083,7.661,0,4.308,2.81,5.9,5.686,7.162l1.432.618c2.333,1.02,4.547,1.975,4.547,4.536,0,2.322-1.65,3.754-4.308,3.754a7.831,7.831,0,0,1-3.69-.792l-.1-.043-2.919-6.4h-.651l-.141,5.871a15.282,15.282,0,0,0,7.6,2.116c6.12,0,9.495-2.865,9.495-8.063,0-4.319-2.811-5.86-5.686-7.075Z" transform="translate(-373.487 -34.702)"/>
      <path id="Path_2947" data-name="Path 2947" d="M564.444,56.708l-1.422-.608c-2.431-1.031-4.71-2.007-4.71-4.547,0-2.149,1.476-3.44,3.95-3.44a6.918,6.918,0,0,1,2.767.478l.1.043,2.767,6.1h.662l.141-5.665a12.383,12.383,0,0,0-6.435-1.7c-5.686,0-9.083,2.865-9.083,7.661,0,4.308,2.81,5.9,5.686,7.162l1.422.618c2.344,1.02,4.558,1.975,4.558,4.536,0,2.322-1.65,3.754-4.308,3.754a7.8,7.8,0,0,1-3.69-.792l-.1-.043-2.919-6.4h-.662l-.141,5.871a15.353,15.353,0,0,0,7.607,2.116c6.12,0,9.495-2.865,9.495-8.063,0-4.319-2.81-5.86-5.686-7.075Z" transform="translate(-413.002 -34.702)"/>
    </g>
    <g id="Group_3226" data-name="Group 3226" transform="translate(0)">
      <path id="Path_2948" data-name="Path 2948" d="M94.344,27.367,83.72,11.871l9.441,15.615a7.448,7.448,0,0,1-2.919-1.281,23.816,23.816,0,0,1-7.911-9.4C79.748,11.568,78.652,5.74,77.589,0c.087.445,3.527,2.062,4.058,2.442a32.477,32.477,0,0,1,4.08,3.44,33.963,33.963,0,0,1,6.109,8.247,31.874,31.874,0,0,1,3.386,9.886c.3,1.932-.076,2.984-.879,3.353Z" transform="translate(-51.068)" fill="url(#linear-gradient)"/>
      <path id="Path_2949" data-name="Path 2949" d="M61.331,91.487a31.97,31.97,0,0,1-9.669,4.037,33.918,33.918,0,0,1-10.244.911,32.381,32.381,0,0,1-5.306-.77c-.64-.152-4.135-1.65-4.525-1.422C36.6,91.226,41.7,88.156,47.354,86.615a23.907,23.907,0,0,1,12.306-.325,7.571,7.571,0,0,1,2.984,1.4L46.421,91.812l16.83-3.266c.293.857-.228,1.866-1.921,2.941Z" transform="translate(-20.79 -56.361)" fill="url(#linear-gradient-2)"/>
      <path id="Path_2950" data-name="Path 2950" d="M13.575,47.232l17.232,5.589a4.053,4.053,0,0,1-2.68,1.085,32.174,32.174,0,0,1-10.493-.488,34.174,34.174,0,0,1-9.679-3.57,31.7,31.7,0,0,1-4.471-2.984C2.962,46.462.467,43.64,0,43.64c5.838-.586,11.763-1.183,17.547-.163a24.021,24.021,0,0,1,11.307,4.991c1.378,1.161,2.268,2.377,2.289,3.364l-17.568-4.6Z" transform="translate(0 -28.253)" fill="url(#linear-gradient-3)"/>
    </g>
  </g>
</svg>
