<svg xmlns="http://www.w3.org/2000/svg" width="12.391" height="11.82" viewBox="0 0 12.391 11.82">
  <g id="_001-star" data-name="001-star" transform="translate(0 0)">
    <g id="Group_3023" data-name="Group 3023" transform="translate(0 0)">
      <path id="Path_2879" data-name="Path 2879" d="M12.373,16.284a.363.363,0,0,0-.293-.247l-3.841-.558L6.521,12a.363.363,0,0,0-.651,0L4.152,15.479l-3.841.558a.363.363,0,0,0-.2.619l2.779,2.709-.656,3.826a.363.363,0,0,0,.527.383L6.2,21.768l3.436,1.806a.363.363,0,0,0,.527-.383L9.5,19.366l2.78-2.709A.363.363,0,0,0,12.373,16.284Z" transform="translate(0 -11.796)" fill="#b2c4c7"/>
    </g>
  </g>
</svg>
