<svg id="suit-heart" xmlns="http://www.w3.org/2000/svg" width="20.5" height="17.566" viewBox="0 0 20.5 17.566">
  <path id="suit-heart-2" data-name="suit-heart" d="M10.25,7.709,9.1,5.416A7.512,7.512,0,0,0,7.629,3.373a3.6,3.6,0,0,0-2.5-1.092A3.793,3.793,0,0,0,1.281,6.023c0,1.552.71,2.647,2.393,4.318.432.428.924.89,1.468,1.4a67.43,67.43,0,0,1,5.107,5.207,67.43,67.43,0,0,1,5.107-5.207c.545-.51,1.038-.974,1.468-1.4,1.684-1.671,2.393-2.766,2.393-4.318a3.793,3.793,0,0,0-3.844-3.741,3.594,3.594,0,0,0-2.5,1.092A7.512,7.512,0,0,0,11.4,5.416Zm.5,10.624a.657.657,0,0,1-1,0A62.5,62.5,0,0,0,4.311,12.72C1.666,10.235,0,8.673,0,6.023A5.074,5.074,0,0,1,5.125,1,5.466,5.466,0,0,1,9.486,3.573a9.672,9.672,0,0,1,.764,1.271,9.738,9.738,0,0,1,.764-1.271A5.463,5.463,0,0,1,15.375,1,5.074,5.074,0,0,1,20.5,6.023c0,2.651-1.666,4.213-4.311,6.7a62.989,62.989,0,0,0-5.436,5.612Z" transform="translate(0 -1)" fill="#484848"/>
</svg>
