<svg id="IWC_Final_Logo" xmlns="http://www.w3.org/2000/svg" width="254" height="50.116" viewBox="0 0 254 50.116">
  <g id="Group_3225" data-name="Group 3225" transform="translate(60.385 4.346)">
    <path id="Path_2941" data-name="Path 2941" d="M157.542,22.842l.013-.294,3.69-.561v-.842H143.369v.842l3.69.561.013.294c.2,4.961.321,11.419.321,16.834v2.7c0,5.536-.12,12.315-.321,17.276l-.013.281-3.69.575v.842h17.877v-.842l-3.757-.562-.013-.294c-.214-5.7-.254-13.264-.254-17.276v-2.7c0-5.416.12-11.874.321-16.834Z" transform="translate(-143.369 -16.584)" fill="#fff"/>
    <path id="Path_2942" data-name="Path 2942" d="M241.382,75.1l-.014-.267c-.187-3.276-.187-7.555-.187-11V56.484c0-5.883-2.728-9.119-7.675-9.119-3.984,0-6.859,1.752-9.627,5.87l-.441.655-.2-.776a6.941,6.941,0,0,0-7.314-5.75c-3.757,0-6.525,1.591-9.253,5.309l-.628.882V47.94l-.722-.548-11.887,3.4v.735l3.129,1,.013.241c.134,2.955.134,5.442.134,9.56v1.5c0,3.45,0,7.729-.2,11l-.013.281-2.808.562v.855H208.8v-.869l-2.554-.562-.013-.267c-.187-3.276-.187-7.555-.187-11V54.051l.134-.107a8.093,8.093,0,0,1,4.613-1.765c2.38,0,3.49,1.471,3.49,4.626v7.02c0,3.45,0,7.729-.187,11l-.027.267-2.554.562v.869h14.856v-.869l-2.554-.562-.013-.267c-.187-3.276-.187-7.555-.187-11V56.484a18.831,18.831,0,0,0-.134-2.033l-.013-.187.147-.12a7.922,7.922,0,0,1,4.747-1.966c2.38,0,3.49,1.471,3.49,4.626v7.02c0,3.45,0,7.729-.187,11l-.013.267-2.567.562v.869h14.869v-.869l-2.567-.562Z" transform="translate(-172.346 -31.761)" fill="#fff"/>
    <path id="Path_2943" data-name="Path 2943" d="M342.239,25.922a9.03,9.03,0,0,0-8.1,5.028l-.668,1.163v-8.3l.254-12.943L333,10.318l-12.008,3.156V14.2l3.276,1V42.89c0,3.624-.08,7.649-.187,10.5l-.013.267-2.822.575v.882l12.355.829V50.178l.655,1.2c1.738,3.116,4.145,4.707,7.167,4.707,6.779,0,11-6.137,11-16.019,0-9-3.717-14.147-10.189-14.147Zm-5.094,25.86a4.115,4.115,0,0,1-3.463-1.631l-.08-.107V32.207l.08-.094a4.733,4.733,0,0,1,3.463-1.885c3.61,0,5.442,3.5,5.442,10.4C342.587,50.686,338.789,51.782,337.144,51.782Z" transform="translate(-246.18 -10.318)" fill="#fff"/>
    <path id="Path_2944" data-name="Path 2944" d="M416.965,53.654l-.013-.267c-.187-3.276-.187-7.555-.187-11V23.809l.241-12.943-.722-.548-12.115,3.156V14.2l3.263,1V42.382c0,3.45,0,7.729-.187,11l-.027.281-2.808.562v.855h15.11v-.869l-2.554-.562Z" transform="translate(-294.324 -10.318)" fill="#fff"/>
    <path id="Path_2945" data-name="Path 2945" d="M455.59,15.619a4.354,4.354,0,1,0,4.479,4.359,4.322,4.322,0,0,0-4.479-4.359Zm4.881,41.1-.013-.267c-.2-3.276-.2-7.555-.2-11V37.8l.254-8.237-.722-.548-12.128,3.4v.735l3.129,1,.014.24c.12,2.955.12,5.442.12,9.56v1.5c0,3.45,0,7.729-.187,11l-.013.281-2.808.562v.855h15.109v-.869Z" transform="translate(-319.498 -13.386)" fill="#fff"/>
    <path id="Path_2946" data-name="Path 2946" d="M507.047,58.878l-1.752-.749c-2.982-1.27-5.8-2.474-5.8-5.6,0-2.648,1.819-4.239,4.867-4.239a8.525,8.525,0,0,1,3.41.588l.12.053,3.423,7.514h.8l.174-6.98a15.226,15.226,0,0,0-7.929-2.1c-7.006,0-11.192,3.53-11.192,9.44,0,5.308,3.463,7.274,7.006,8.825l1.765.762c2.875,1.257,5.6,2.434,5.6,5.59,0,2.861-2.033,4.626-5.309,4.626a9.65,9.65,0,0,1-4.546-.976l-.12-.053-3.6-7.889h-.8l-.174,7.234a18.831,18.831,0,0,0,9.36,2.607c7.541,0,11.7-3.53,11.7-9.935,0-5.322-3.463-7.221-7.006-8.718Z" transform="translate(-345.737 -31.761)" fill="#fff"/>
    <path id="Path_2947" data-name="Path 2947" d="M567.095,58.878l-1.752-.749c-3-1.27-5.8-2.474-5.8-5.6,0-2.648,1.819-4.239,4.867-4.239a8.524,8.524,0,0,1,3.41.588l.12.053,3.41,7.514h.816l.174-6.98a15.259,15.259,0,0,0-7.929-2.1c-7.006,0-11.192,3.53-11.192,9.44,0,5.308,3.463,7.274,7.006,8.825l1.752.762c2.888,1.257,5.616,2.434,5.616,5.59,0,2.861-2.033,4.626-5.308,4.626a9.609,9.609,0,0,1-4.546-.976l-.12-.053-3.6-7.889H553.2l-.174,7.234a18.918,18.918,0,0,0,9.374,2.607c7.542,0,11.7-3.53,11.7-9.935,0-5.322-3.463-7.221-7.006-8.718Z" transform="translate(-380.486 -31.761)" fill="#fff"/>
  </g>
  <g id="Group_3226" data-name="Group 3226" transform="translate(0)">
    <path id="Path_2948" data-name="Path 2948" d="M98.234,33.722,85.144,14.628,96.777,33.87a9.177,9.177,0,0,1-3.6-1.578,29.346,29.346,0,0,1-9.748-11.579C80.25,14.254,78.9,7.073,77.589,0c.107.548,4.346,2.541,5,3.009a40.019,40.019,0,0,1,5.028,4.238,41.85,41.85,0,0,1,7.528,10.162A39.275,39.275,0,0,1,99.317,29.59c.374,2.38-.093,3.677-1.083,4.132Z" transform="translate(-44.91)" fill="#fff"/>
    <path id="Path_2949" data-name="Path 2949" d="M68.238,92.847a39.394,39.394,0,0,1-11.914,4.974A41.794,41.794,0,0,1,43.7,98.944a39.9,39.9,0,0,1-6.538-.949c-.789-.187-5.095-2.033-5.576-1.752,6.178-3.717,12.462-7.5,19.428-9.4a29.459,29.459,0,0,1,15.163-.4,9.33,9.33,0,0,1,3.677,1.725l-19.99,5.081L70.6,89.223c.361,1.056-.281,2.3-2.367,3.624Z" transform="translate(-18.283 -49.564)" fill="#fff"/>
    <path id="Path_2950" data-name="Path 2950" d="M16.727,48.232l21.234,6.886a4.994,4.994,0,0,1-3.3,1.337,39.645,39.645,0,0,1-12.93-.6A42.11,42.11,0,0,1,9.8,51.455a39.054,39.054,0,0,1-5.509-3.677C3.65,47.283.575,43.806,0,43.806c7.194-.722,14.495-1.457,21.622-.2a29.6,29.6,0,0,1,13.933,6.151c1.7,1.431,2.795,2.928,2.821,4.145l-21.648-5.67Z" transform="translate(0 -24.846)" fill="#fff"/>
  </g>
</svg>
