<svg id="trash3" xmlns="http://www.w3.org/2000/svg" width="17" height="19" viewBox="0 0 17 19">
  <path id="trash3-2" data-name="trash3" d="M7.679,1.188h3.643a.6.6,0,0,1,.607.594V2.969H7.071V1.781a.6.6,0,0,1,.607-.594m5.464,1.781V1.781A1.8,1.8,0,0,0,11.321,0H7.679A1.8,1.8,0,0,0,5.857,1.781V2.969H1.607a.594.594,0,1,0,0,1.188H2.26L3.3,16.815A2.408,2.408,0,0,0,5.718,19h7.565A2.408,2.408,0,0,0,15.7,16.815L16.74,4.156h.653a.594.594,0,1,0,0-1.187ZM15.52,4.156,14.493,16.72a1.2,1.2,0,0,1-1.211,1.093H5.718A1.2,1.2,0,0,1,4.507,16.72L3.48,4.156ZM6.429,5.344A.6.6,0,0,1,7.07,5.9L7.677,16a.607.607,0,0,1-1.212.071L5.857,5.973a.586.586,0,0,1,.152-.431.612.612,0,0,1,.419-.2Zm6.142,0a.612.612,0,0,1,.419.2.586.586,0,0,1,.152.431l-.607,10.094A.607.607,0,0,1,11.323,16L11.93,5.9a.6.6,0,0,1,.641-.558m-3.071,0a.6.6,0,0,1,.607.594V16.031a.607.607,0,0,1-1.214,0V5.938A.6.6,0,0,1,9.5,5.344" transform="translate(-1)" fill="#484848"/>
</svg>
