<svg id="cart3" xmlns="http://www.w3.org/2000/svg" width="17.999" height="18" viewBox="0 0 17.999 18">
  <path id="cart3-2" data-name="cart3" d="M0,1.6A.6.6,0,0,1,.6,1H2.4a.6.6,0,0,1,.582.455L3.468,3.4H17.4a.6.6,0,0,1,.588.718l-1.2,6a.6.6,0,0,1-.558.481l-11.276.566L5.3,13H15.6a.6.6,0,0,1,0,1.2H4.8a.6.6,0,0,1-.589-.49l-1.8-9.582L1.932,2.2H.6A.6.6,0,0,1,0,1.6m3.722,3L4.73,9.975,15.7,9.424,16.668,4.6ZM6,14.2a2.4,2.4,0,1,0,2.4,2.4A2.4,2.4,0,0,0,6,14.2m8.4,0a2.4,2.4,0,1,0,2.4,2.4,2.4,2.4,0,0,0-2.4-2.4M6,15.4a1.2,1.2,0,1,1-1.2,1.2A1.2,1.2,0,0,1,6,15.4m8.4,0a1.2,1.2,0,1,1-1.2,1.2,1.2,1.2,0,0,1,1.2-1.2" transform="translate(0 -1)" fill="#f9f8f7"/>
</svg>
